<svg xmlns="http://www.w3.org/2000/svg" xmlns:xlink="http://www.w3.org/1999/xlink" viewBox="0 0 750 500"><defs><style>.cls-1{fill:none;}.cls-2{isolation:isolate;}.cls-3{clip-path:url(#clip-path);}.cls-4{fill:url(#linear-gradient);}.cls-5,.cls-6,.cls-7{fill:#fff;}.cls-5{opacity:0.22;}.cls-6{opacity:0.16;}.cls-7{opacity:0.3;}.cls-8{opacity:0.26;fill:url(#linear-gradient-2);}.cls-12,.cls-13,.cls-15,.cls-16,.cls-20,.cls-25,.cls-26,.cls-8{mix-blend-mode:multiply;}.cls-9{opacity:0.42;fill:url(#linear-gradient-3);}.cls-10{fill:url(#linear-gradient-4);}.cls-11{fill:url(#linear-gradient-5);}.cls-12{fill:url(#linear-gradient-6);}.cls-13{fill:url(#linear-gradient-7);}.cls-14{fill:url(#linear-gradient-8);}.cls-15{opacity:0.61;}.cls-16,.cls-25{opacity:0.58;}.cls-16{fill:url(#linear-gradient-10);}.cls-17{clip-path:url(#clip-path-2);}.cls-18{fill:url(#linear-gradient-11);}.cls-19{opacity:0.72;fill:url(#linear-gradient-12);}.cls-19,.cls-22{mix-blend-mode:screen;}.cls-20{opacity:0.23;}.cls-21{fill:url(#linear-gradient-13);}.cls-22{opacity:0.47;fill:url(#linear-gradient-15);}.cls-23{opacity:0.51;}.cls-24{fill:#c7ffff;}.cls-25{fill:url(#linear-gradient-16);}.cls-26{fill:url(#linear-gradient-17);}.cls-27{fill:#043246;}.cls-28{opacity:0.5;}</style><clipPath id="clip-path"><rect class="cls-1" width="750" height="500"/></clipPath><linearGradient id="linear-gradient" x1="375" y1="378.14" x2="375" y2="-58.61" gradientUnits="userSpaceOnUse"><stop offset="0.3" stop-color="#32f6f6"/><stop offset="0.4" stop-color="#32eff1"/><stop offset="0.53" stop-color="#30dce1"/><stop offset="0.68" stop-color="#2ebdc9"/><stop offset="0.85" stop-color="#2b92a6"/><stop offset="0.96" stop-color="#29738e"/></linearGradient><linearGradient id="linear-gradient-2" x1="616.75" y1="264.06" x2="583.13" y2="112.74" gradientUnits="userSpaceOnUse"><stop offset="0" stop-color="#00979c"/><stop offset="1" stop-color="#00697a"/></linearGradient><linearGradient id="linear-gradient-3" x1="178.67" y1="127.35" x2="274.64" y2="398.71" gradientUnits="userSpaceOnUse"><stop offset="0" stop-color="#00697a"/><stop offset="1" stop-color="#00979c"/></linearGradient><linearGradient id="linear-gradient-4" x1="-1270.72" y1="181.18" x2="-1274.32" y2="432.77" gradientTransform="matrix(-0.99, 0.11, 0.11, 0.99, -868.32, 55.8)" xlink:href="#linear-gradient-3"/><linearGradient id="linear-gradient-5" x1="201.68" y1="242.38" x2="201.68" y2="366.24" xlink:href="#linear-gradient-3"/><linearGradient id="linear-gradient-6" x1="156.03" y1="327.99" x2="156.03" y2="307.03" gradientUnits="userSpaceOnUse"><stop offset="0" stop-color="#1b9e9c" stop-opacity="0"/><stop offset="1" stop-color="#006376"/></linearGradient><linearGradient id="linear-gradient-7" x1="-17.4" y1="327.99" x2="-17.4" y2="307.03" xlink:href="#linear-gradient-6"/><linearGradient id="linear-gradient-8" x1="490.91" y1="220.56" x2="492.49" y2="376.56" gradientUnits="userSpaceOnUse"><stop offset="0" stop-color="#006376"/><stop offset="1" stop-color="#1b9e9c"/></linearGradient><linearGradient id="linear-gradient-10" x1="523.6" y1="346.73" x2="523.6" y2="311.29" xlink:href="#linear-gradient-6"/><clipPath id="clip-path-2"><polygon class="cls-1" points="-42.13 307 234.5 307 792.13 307 792.13 495.36 138.3 495.36 -21.68 495.36 -42.13 307"/></clipPath><linearGradient id="linear-gradient-11" x1="-42.13" y1="401.18" x2="792.14" y2="401.18" gradientUnits="userSpaceOnUse"><stop offset="0" stop-color="#057187"/><stop offset="0.52" stop-color="#27a3bb"/><stop offset="1" stop-color="#006a7b"/></linearGradient><linearGradient id="linear-gradient-12" x1="103.39" y1="396.92" x2="594.36" y2="396.92" gradientUnits="userSpaceOnUse"><stop offset="0" stop-color="#057187"/><stop offset="1" stop-color="#27a3bb" stop-opacity="0.3"/></linearGradient><linearGradient id="linear-gradient-13" x1="500.24" y1="1070.98" x2="501.43" y2="1188.59" gradientTransform="matrix(1, 0, 0, -1, 0, 1431.6)" xlink:href="#linear-gradient-8"/><linearGradient id="linear-gradient-15" x1="-1348.71" y1="396.92" x2="-1049.95" y2="396.92" gradientTransform="matrix(-1, 0, 0, 1, -830.34, 0)" gradientUnits="userSpaceOnUse"><stop offset="0" stop-color="#27a3bb" stop-opacity="0.2"/><stop offset="1" stop-color="#057187"/></linearGradient><linearGradient id="linear-gradient-16" x1="523.6" y1="1266.26" x2="523.6" y2="1241.58" gradientTransform="matrix(1, 0, 0, -1, 0, 1542.66)" xlink:href="#linear-gradient-6"/><linearGradient id="linear-gradient-17" x1="142.72" y1="1260.69" x2="142.72" y2="1239.73" gradientTransform="matrix(1, 0, 0, -1, 0, 1542.66)" xlink:href="#linear-gradient-6"/></defs><title>bgphase1abs</title><g class="cls-2"><g id="Layer_4" data-name="Layer 4"><g class="cls-3"><rect class="cls-4" width="750" height="500"/><path class="cls-5" d="M-79.4,120.68c44.63-10.69,243.63-6.47,215.21,1.24S17.42,126.81,11.5,132.23c-7.8,7.14,230.19-3.46,212.63,14.82-9.24,9.63-329.35,41.11-331.14-10.45C-107.26,129.35-89.58,123.12-79.4,120.68Z"/><path class="cls-6" d="M860.27,13.59S547.15,9,583.14,29.2s150,12.79,157.46,27c9.88,18.7-331.92-4.74-269.34,38.82,22.82,15.89,389-.63,389-.63Z"/><path class="cls-7" d="M-30.11-21s256-4.9,226.61,16.62S73.88,9.23,67.75,24.34C59.67,44.25,306.18,14.68,288,65.67,278.42,92.53-30.11,65-30.11,65Z"/><path class="cls-8" d="M855.07,161,732.43,123.15,715,131.59s-4.08-3.2-20.64-1.26S661.63,134,661.63,134L604.09,115.3l-52-3.18L481.7,138.19,381,159.25l-68.57,61.64,282.87,37.25L910,257.46Z"/><path class="cls-9" d="M550.14,254s-107.69-24.11-115.72-20.89-49.83-.3-49.83-.3l-24.11-25.42s-19.29-11.25-30.54-14.47-54.65,0-54.65,0l-62.68-22.5-28.93-9.64L141.9,131.87s-59.47,20.89-69.11,20.89-20.89,24.11-20.89,24.11l-37,16.07L-14,225.09l-90,114.12H611.22Z"/><path class="cls-10" d="M172.13,259.59s85.45-28.85,92.26-26.93S373.8,182.12,373.8,182.12l75.68-4.85,79.82-35.77,54.5,3.4,40.58,23.69L750.73,300.53,129.81,334.07Z"/><path class="cls-11" d="M368.39,297.4l-89.62-40.85H255l-25,7.91s-19.77-42.17-27.68-42.17-32.95,6.59-32.95,6.59l-25,18.45-15.81,19.77L83.73,286.86s-19.77,21.09-34.26,29L35,323.76H368.39Z"/><polygon class="cls-12" points="234.5 306.39 230.01 296.52 228.79 302.22 225.54 293.9 223.7 302.44 221.97 297.72 221.46 299.69 220.48 297.4 219.26 301.47 217.28 296.39 215.99 302.36 214.26 297.64 213.75 299.61 212.77 297.32 212.33 298.8 211.14 296.02 209.79 301.81 206.63 293.7 204.05 305.72 200.08 295.57 198.6 300.95 196.76 295.49 196.2 297.84 195.14 295.12 194.65 296.87 193.36 293.56 192.04 299.72 190.22 295.06 188.22 302.33 186.09 296.89 184.21 303.71 180.95 295.37 178.81 303.1 176.75 297.24 175.76 302.31 173.16 294.92 171.68 302.51 170.29 298.31 169.88 300.07 169.09 298.03 168.11 301.65 166.52 297.14 165.48 302.45 164.09 298.25 163.68 300 162.9 297.97 162.54 299.28 161.59 296.81 160.5 301.96 157.97 294.76 155.97 305.02 152.08 294 151.29 297.16 148.46 290.92 147.65 294.69 147.23 293.51 146.75 295.42 145.49 291.83 144.82 295.26 141.54 286.86 139.19 297.83 138.34 295.45 137.8 297.61 136.03 292.76 135.23 295.82 133.72 292.27 131.84 298.57 128.77 290.71 127.39 297.11 125.9 292.86 125.3 295.9 124.11 292.64 123.31 295.69 121.8 292.15 121.12 294.43 119.29 290.13 117.2 299.09 112.31 286.56 110.17 296.54 108.81 292.68 107.03 301.82 102.19 289.44 100.37 296.05 99.89 294.48 99.46 296.46 97.06 289.32 96.19 292.95 94.55 288.74 93.8 291.45 91.81 286.34 89.76 295.86 86.95 288.66 83.85 299.9 80.56 291.48 77.65 302.03 77.57 301.83 77.57 306.65 82.67 306.62 82.5 307.34 234.5 306.39"/><polygon class="cls-13" points="61.06 306.39 56.58 296.52 55.35 302.22 52.1 293.9 50.27 302.44 48.54 297.72 48.02 299.69 47.05 297.4 45.83 301.47 43.84 296.39 42.56 302.36 40.83 297.64 40.31 299.61 39.34 297.32 38.9 298.8 37.71 296.02 36.36 301.81 33.2 293.7 30.62 305.72 26.65 295.57 25.17 300.95 23.33 295.49 22.77 297.84 21.71 295.12 21.22 296.87 19.93 293.56 18.61 299.72 16.79 295.06 14.78 302.33 12.66 296.89 10.77 303.71 7.51 295.37 5.38 303.1 3.32 297.24 2.33 302.31 -0.27 294.92 -1.75 302.51 -3.14 298.31 -3.56 300.07 -4.34 298.03 -5.32 301.65 -6.91 297.14 -7.95 302.45 -9.34 298.25 -9.75 300 -10.54 297.97 -10.89 299.28 -11.84 296.81 -12.93 301.96 -15.47 294.76 -17.47 305.02 -21.35 294 -22.14 297.16 -24.98 290.92 -25.79 294.69 -26.2 293.51 -26.68 295.42 -27.94 291.83 -28.61 295.26 -31.89 286.86 -34.25 297.83 -35.09 295.45 -35.63 297.61 -37.41 292.76 -38.2 295.82 -39.71 292.27 -41.59 298.57 -44.66 290.71 -46.04 297.11 -47.54 292.86 -48.13 295.9 -49.33 292.64 -50.12 295.69 -51.63 292.15 -52.31 294.43 -54.14 290.13 -56.23 299.09 -61.12 286.56 -63.27 296.54 -64.62 292.68 -66.41 301.82 -71.24 289.44 -73.06 296.05 -73.54 294.48 -73.97 296.46 -76.37 289.32 -77.24 292.95 -78.88 288.74 -79.63 291.45 -81.63 286.34 -83.67 295.86 -86.48 288.66 -89.58 299.9 -92.87 291.48 -95.78 302.03 -95.86 301.83 -95.86 306.65 -90.76 306.62 -90.94 307.34 61.06 306.39"/><path class="cls-14" d="M191.19,310.58s61.94-22.4,73.8-22.4,35.58-6.59,54-9.23,79.07-26.36,79.07-26.36h34.26l25-11.86s36.9,6.59,42.17,6.59,39.54-18.45,39.54-18.45L576,202.52h26.36l39.54-23.72,41.36-6.72,49.57,34.4,59.3,60.62v55.35H191.19Z"/><g class="cls-15"><path class="cls-14" d="M191.19,310.58s61.94-22.4,73.8-22.4,35.58-6.59,54-9.23,79.07-26.36,79.07-26.36h34.26l25-11.86s36.9,6.59,42.17,6.59,39.54-18.45,39.54-18.45L576,202.52h26.36l39.54-23.72,41.36-6.72,49.57,34.4,59.3,60.62v55.35H191.19Z"/></g><polygon class="cls-16" points="793.08 306.82 786.19 279.78 780.3 297.33 776.52 283.09 772.67 294.55 768.64 279.38 765.35 289.18 762.65 276.32 760.32 283.27 759.34 279.62 757.42 285.35 756.28 280.44 752.99 291.91 750.01 280.69 742.84 302.04 737.57 276.96 731.84 294.01 729.1 281.91 726.95 287.76 726.07 284.69 724.3 289.51 723.26 285.39 720.14 295.32 717.52 282.85 713.93 293.54 711.49 285.05 709.72 289.87 708.68 285.75 705.56 295.69 701.81 277.86 695.94 295.36 693.43 283.46 689.99 293.74 686.35 280.05 679.95 299.12 675.84 283.65 671.66 296.1 667.28 279.63 663.71 290.27 660.78 276.3 658.24 283.85 657.19 279.88 655.1 286.1 653.86 280.78 650.29 293.23 647.04 281.04 639.26 304.24 634.76 282.82 629.67 297.98 627.23 287.22 625.32 292.42 624.54 289.69 623.06 293.71 620.61 284.12 617.84 292.38 616.93 288.06 614.41 295.57 612.14 287.02 609.87 293.79 609.08 290.64 607.99 294.11 605.24 283.77 603.86 287.87 602.97 283.62 601.46 288.1 599.99 281.09 597.95 287.18 597.09 283.98 595.53 288.64 595.52 288.6 595.4 288.96 594.41 284.7 591.52 294.75 588.91 284.92 587.74 288.42 586.68 284.8 581.56 298.51 578.01 281.65 574.64 291.7 572.93 296.28 570.6 285.99 568.99 290.36 567.26 284.45 565.51 289.15 565.48 289.03 565.1 290.25 563.6 294.26 560.64 281.41 558.04 288.37 556.98 284.71 555.3 289.2 555.17 288.74 554.71 289.97 553.58 285.55 549.91 297.02 549.34 295.04 546.69 282.44 541.54 297.77 539.35 287.35 536.33 296.35 535.11 291.78 532.89 282.11 526.82 298.36 523.93 287.52 523.75 288.06 523.51 287.09 521.12 292.94 520.15 289.87 518.85 293.05 516.44 283.99 513.31 293.31 510.74 281.08 508.52 287.69 507.59 284.21 505.76 289.66 504.68 285 501.91 294.63 500.91 290.98 500.52 292.07 498.71 285.23 495.8 293.88 493.32 283.1 489.38 293.65 487.94 286.78 485.36 294.47 484.04 288.73 481.98 293.44 481.35 290.64 479.67 295.2 478.99 292.81 477.61 296.56 476.8 293.35 474.37 301.09 472.32 291.38 469.53 299.7 467.63 293.09 466.25 296.84 465.44 293.64 463.01 301.37 460.09 287.48 455.51 301.12 453.56 291.85 449.94 302.64 445.82 288.52 440.07 303.91 436.44 291.45 432.68 301.49 428.81 288.21 425.6 296.81 423.01 285.55 420.73 291.64 419.8 288.44 417.92 293.47 416.82 289.17 414.1 297.68 413.56 295.34 413.02 297.21 410.74 289.4 405.23 304.17 402.95 293.36 401.41 297.97 398.69 286.16 393.11 301.11 390.48 290.52 388.38 295.65 387.53 292.96 385.8 297.19 384.81 293.58 383.44 297.47 382.69 293.87 380.99 298.95 379.24 291.38 375.74 300.75 373.4 293.32 371.67 297.54 370.67 293.94 368.65 299.71 367.97 297.16 367.01 300.01 364.03 287.03 360.29 297.05 359.43 292.99 358 297.27 357.4 295.02 356.93 296.43 355.9 291.96 352.64 299.41 351.65 295.68 347.24 308.83 344.69 296.69 341.8 305.28 340.42 299.18 339.34 302.13 338.89 300.58 338 303.01 337.48 300.93 335.9 305.94 334.58 299.66 332.78 305.04 331.55 300.77 330.65 303.19 330.13 301.12 328.56 306.12 326.67 297.14 323.71 305.96 322.45 299.96 320.1 306.94 317.44 297.81 313.72 307.76 311.37 299.7 308.94 306.2 306.43 297.61 304.36 303.17 302.68 295.89 301.21 299.83 300.6 297.76 299.39 301.01 298.68 298.23 296.6 304.74 294.75 298.38 290.22 310.49 286.95 296.28 283.34 305.96 281.63 299.11 280.28 302.42 279.73 300.68 278.61 303.42 277.97 301.08 275.99 306.72 274.37 299.66 272.1 305.72 270.59 300.91 269.47 303.65 268.82 301.31 266.85 306.95 264.53 296.85 260.82 306.78 259.27 300.04 254.12 311.81 434.42 310.29 434.2 309.44 475.14 309.1 474.96 309.51 793.08 306.82"/><g class="cls-17"><polygon class="cls-18" points="-42.13 307 234.5 307 792.13 307 792.13 495.36 138.3 495.36 -21.68 495.36 -42.13 307"/><path class="cls-19" d="M238.08,303.13S89,300.27,104.53,308.85s101.08,6.65,86.38,12.62c-4.47,1.81-19.81,0-38.59,4.59-17.17,4.2-9.41,14,4.66,14.14,26.31.25,47.65,2.52,34.93,5.25-22.15,4.75-28.45,7.31-22.15,11,2.92,1.71,21.38-1.08,23,1.75,5.41,9.67-41.21-2.08-41.21,15.92,0,19.18,85,.74,84.93,13.16,0,6.87-20.88,8.35-28.09,11.2-17.58,7-8.68,18.48,24.12,14.47,28.18-3.45,20.86,23.12-6.34,24.12-23.54.87-40.38,37.24,31.13,35l120,17.52,76.93-.58s84,8.83,63.27-9.62-10.72-15.21,6.57-31.89-17.94-18.94-36.83-28,10-6.59,49.34-12.53,38.47-39.68,3.89-40-38.54-14.29-13.21-15.63,80.67-16.89,39.75-23.79-1-9.57,17.46-10.91S590,303.13,590,303.13Z"/><g class="cls-20"><path class="cls-21" d="M200.33,293.48s61.94,16.85,73.8,16.85,35.58,5,54,6.94,79.07,19.82,79.07,19.82H441.5l25,8.92s36.9-5,42.17-5,39.54,13.88,39.54,13.88l36.9,19.82H611.5L651,392.6l41.36,5.05L742,371.78l59.3-45.6V284.56H200.33Z"/><g class="cls-15"><path class="cls-21" d="M200.33,293.48s61.94,16.85,73.8,16.85,35.58,5,54,6.94,79.07,19.82,79.07,19.82H441.5l25,8.92s36.9-5,42.17-5,39.54,13.88,39.54,13.88l36.9,19.82H611.5L651,392.6l41.36,5.05L742,371.78l59.3-45.6V284.56H200.33Z"/></g></g><path class="cls-22" d="M436.42,303.13s90.72-2.86,81.26,5.72-61.51,6.65-52.56,12.62c2.72,1.81,12.06,0,23.48,4.59,10.45,4.2,5.73,14-2.83,14.14-16,.25-29,2.52-21.25,5.25,13.48,4.75,17.31,7.31,13.48,11-1.77,1.71-13-1.08-14,1.75-3.29,9.67,25.08-2.08,25.08,15.92,0,19.18-51.74.74-51.68,13.16,0,6.87,12.71,8.35,17.09,11.2,10.7,7,5.28,18.48-14.68,14.47-17.15-3.45-12.69,23.12,3.86,24.12,14.33.87,24.57,37.24-18.94,35l-73,17.52L304.89,489s-51.1,8.83-38.5-9.62,6.53-15.21-4-31.89,10.92-18.94,22.41-28,3.27-18.51-21-18.13c-32.5.52-20.81-22.8,0-27.89,33.52-8.2,28.74-22.79-3.4-22.11-43.09.91-49.09-16.89-24.19-23.79s.59-9.57-10.62-10.91c-5-.59-6.2-3.35-6-6.24.28-4.23,3.4-7.4,7-7.4Z"/><g class="cls-23"><path class="cls-24" d="M339,358.69c8.92-.84,17.84-1.3,26.76-1.62,4.46-.2,8.92-.26,13.38-.38l13.38-.17,13.39,0c4.46.09,8.92.1,13.39.26,8.92.24,17.85.61,26.78,1.37-8.92.84-17.84,1.3-26.76,1.63-4.46.2-8.92.26-13.38.38l-13.38.16-13.39,0c-4.46-.08-8.92-.1-13.39-.26C356.83,359.81,347.9,359.44,339,358.69Z"/><path class="cls-24" d="M423.84,344.44c6.88-.81,13.75-1.25,20.63-1.55s13.76-.47,20.64-.49,13.76.1,20.64.36,13.76.66,20.64,1.44c-6.88.82-13.75,1.26-20.63,1.56s-13.76.47-20.64.48-13.76-.11-20.64-.37S430.72,345.22,423.84,344.44Z"/><path class="cls-24" d="M190,337.55c6.88-.81,13.75-1.25,20.63-1.55s13.76-.47,20.64-.49,13.76.1,20.64.36,13.76.66,20.64,1.44c-6.88.82-13.75,1.26-20.63,1.56s-13.76.47-20.64.48-13.76-.11-20.64-.37S196.9,338.32,190,337.55Z"/><path class="cls-24" d="M401.11,371.31c12.34-.87,24.68-1.37,37-1.73,6.17-.22,12.34-.3,18.52-.44l18.52-.23,18.52,0c6.17.07,12.35.06,18.52.2,12.35.2,24.7.54,37,1.26-12.34.88-24.68,1.38-37,1.74-6.17.22-12.34.29-18.52.44l-18.52.22H456.67c-6.17-.06-12.35-.06-18.52-.2C425.81,372.36,413.46,372,401.11,371.31Z"/><path class="cls-24" d="M310.31,391.65c12.34-.87,24.68-1.37,37-1.73,6.17-.22,12.34-.3,18.52-.44l18.52-.23,18.52,0c6.17.07,12.35.06,18.52.2,12.35.2,24.7.54,37,1.26-12.34.88-24.68,1.38-37,1.74-6.17.22-12.34.29-18.52.44l-18.52.22H365.88c-6.17-.06-12.35-.06-18.52-.2C335,392.7,322.66,392.37,310.31,391.65Z"/><path class="cls-24" d="M245.46,327.53c8.92-.84,17.84-1.3,26.76-1.62,4.46-.2,8.92-.26,13.38-.38l13.38-.17,13.39,0c4.46.09,8.92.1,13.39.26,8.92.24,17.85.61,26.78,1.37-8.92.84-17.84,1.3-26.76,1.63-4.46.2-8.92.26-13.38.38l-13.38.16-13.39,0c-4.46-.08-8.92-.1-13.39-.26C263.31,328.65,254.39,328.28,245.46,327.53Z"/><path class="cls-24" d="M438.1,321.61c8.92-.84,17.84-1.3,26.76-1.62,4.46-.2,8.92-.26,13.38-.38l13.38-.17,13.39,0c4.46.09,8.92.1,13.39.26,8.92.24,17.85.61,26.78,1.37-8.92.84-17.84,1.3-26.76,1.63-4.46.2-8.92.26-13.38.38l-13.38.16-13.39,0c-4.46-.08-8.92-.1-13.39-.26C456,322.73,447,322.36,438.1,321.61Z"/></g><polygon class="cls-25" points="793.08 304.19 786.19 323.02 780.3 310.8 776.52 320.71 772.67 312.74 768.64 323.3 765.35 316.47 762.65 325.43 760.32 320.59 759.34 323.13 757.42 319.14 756.28 322.56 752.99 314.57 750.01 322.39 742.84 307.52 737.57 324.99 731.84 313.11 729.1 321.53 726.95 317.46 726.07 319.6 724.3 316.25 723.26 319.12 720.14 312.2 717.52 320.88 713.93 313.44 711.49 319.35 709.72 315.99 708.68 318.86 705.56 311.94 701.81 324.36 695.94 312.17 693.43 320.46 689.99 313.3 686.35 322.83 679.95 309.56 675.84 320.32 671.66 311.66 667.28 323.13 663.71 315.71 660.78 325.44 658.24 320.18 657.19 322.95 655.1 318.62 653.86 322.32 650.29 313.65 647.04 322.14 639.26 305.99 634.76 320.9 629.67 310.35 627.23 317.83 625.32 314.22 624.54 316.12 623.06 313.32 620.61 320 617.84 314.25 616.93 317.25 614.41 312.02 612.14 317.98 609.87 313.27 609.08 315.46 607.99 313.04 605.24 320.24 603.86 317.38 602.97 320.35 601.46 317.22 599.99 322.1 597.95 317.86 597.09 320.1 595.53 316.85 595.52 316.88 595.4 316.63 594.41 319.59 591.52 312.6 588.91 319.44 587.74 317.01 586.68 319.52 581.56 309.97 578.01 321.72 574.64 314.71 572.93 311.53 570.6 318.69 568.99 315.65 567.26 319.77 565.51 316.5 565.48 316.57 565.1 315.73 563.6 312.94 560.64 321.88 558.04 317.04 556.98 319.59 555.3 316.46 555.17 316.78 554.71 315.92 553.58 319 549.91 311.01 549.34 312.4 546.69 321.17 541.54 310.49 539.35 317.75 536.33 311.48 535.11 314.66 532.89 321.4 526.82 310.08 523.93 317.63 523.75 317.25 523.51 317.93 521.12 313.86 520.15 315.99 518.85 313.78 516.44 320.09 513.31 313.6 510.74 322.12 508.52 317.51 507.59 319.93 505.76 316.14 504.68 319.39 501.91 312.68 500.91 315.22 500.52 314.46 498.71 319.23 495.8 313.2 493.32 320.7 489.38 313.36 487.94 318.14 485.36 312.79 484.04 316.79 481.98 313.5 481.35 315.45 479.67 312.28 478.99 313.95 477.61 311.34 476.8 313.57 474.37 308.18 472.32 314.94 469.53 309.15 467.63 313.75 466.25 311.14 465.44 313.37 463.01 307.98 460.09 317.65 455.51 308.16 453.56 314.62 449.94 307.1 445.82 316.93 440.07 306.22 436.44 314.9 432.68 307.9 428.81 317.15 425.6 311.16 423.01 319 420.73 314.76 419.8 316.99 417.92 313.49 416.82 316.48 414.1 310.56 413.56 312.18 413.02 310.88 410.74 316.32 405.23 306.04 402.95 313.56 401.41 310.35 398.69 318.58 393.11 308.16 390.48 315.54 388.38 311.97 387.53 313.84 385.8 310.9 384.81 313.41 383.44 310.7 382.69 313.21 380.99 309.67 379.24 314.94 375.74 308.42 373.4 313.59 371.67 310.65 370.67 313.16 368.65 309.14 367.97 310.92 367.01 308.93 364.03 317.97 360.29 310.99 359.43 313.82 358 310.84 357.4 312.41 356.93 311.43 355.9 314.54 352.64 309.35 351.65 311.95 347.24 302.79 344.69 311.25 341.8 305.26 340.42 309.51 339.34 307.46 338.89 308.54 338 306.84 337.48 308.29 335.9 304.8 334.58 309.18 332.78 305.43 331.55 308.41 330.65 306.71 330.13 308.16 328.56 304.68 326.67 310.93 323.71 304.79 322.45 308.97 320.1 304.1 317.44 310.47 313.72 303.53 311.37 309.15 308.94 304.62 306.43 310.6 304.36 306.73 302.68 311.8 301.21 309.06 300.6 310.5 299.39 308.24 298.68 310.17 296.6 305.64 294.75 310.07 290.22 301.63 286.95 311.53 283.34 304.79 281.63 309.56 280.28 307.25 279.73 308.46 278.61 306.56 277.97 308.19 275.99 304.26 274.37 309.18 272.1 304.96 270.59 308.3 269.47 306.4 268.82 308.02 266.85 304.1 264.53 311.13 260.82 304.22 259.27 308.91 254.12 300.71 434.42 301.77 434.2 302.37 475.14 302.61 474.96 302.32 793.08 304.19"/><polygon class="cls-26" points="221.19 303.57 216.7 313.43 215.48 307.73 212.23 316.05 210.39 307.51 208.66 312.24 208.15 310.26 207.17 312.55 205.95 308.48 203.97 313.56 202.68 307.59 200.95 312.32 200.44 310.34 199.46 312.63 199.02 311.16 197.83 313.94 196.48 308.14 193.32 316.25 190.74 304.23 186.77 314.39 185.29 309.01 183.46 314.46 182.89 312.11 181.83 314.84 181.34 313.08 180.05 316.39 178.73 310.23 176.91 314.89 174.91 307.62 172.78 313.07 170.9 306.24 167.64 314.59 165.5 306.85 163.44 312.71 162.45 307.64 159.85 315.04 158.37 307.44 156.98 311.64 156.56 309.88 155.78 311.92 154.8 308.3 153.21 312.82 152.17 307.5 150.78 311.7 150.37 309.95 149.59 311.98 149.23 310.67 148.28 313.14 147.19 307.99 144.66 315.2 142.66 304.93 138.77 315.96 137.98 312.8 135.15 319.04 134.34 315.26 133.92 316.44 133.44 314.54 132.18 318.13 131.51 314.69 128.23 323.09 125.88 312.12 125.03 314.51 124.49 312.35 122.72 317.19 121.92 314.14 120.41 317.68 118.53 311.38 115.46 319.24 114.08 312.84 112.59 317.1 111.99 314.05 110.8 317.31 110 314.26 108.49 317.8 107.81 315.53 105.98 319.82 103.89 310.86 99 323.4 96.86 313.41 95.5 317.27 93.72 308.14 88.88 320.52 87.06 313.9 86.58 315.48 86.15 313.5 83.75 320.63 82.88 317 81.24 321.21 80.49 318.5 78.5 323.61 76.45 314.09 73.64 321.29 70.54 310.05 67.25 318.48 64.34 307.93 64.26 308.13 64.26 303.3 69.36 303.33 69.19 302.62 221.19 303.57"/></g><path class="cls-27" d="M-23,443.25l58.65-6.59H73.9l23.72,11.86h73.8a226.47,226.47,0,0,1,32.95,0c18.45,1.32,61.94-18.45,61.94-18.45l46.13,9.26,83,9.26h87l40.85-9.26h64.58l50.08-14.53L678.8,436.7h63.26l60.62,11.89,13.18,43.52V532l-852.66-15Z"/><path class="cls-27" d="M150.27,472.28s0-49.72,37.92-66.58c0,0-37.15,26.13-24.44,70.79C172.11,505.86,150.27,472.28,150.27,472.28Z"/><path class="cls-27" d="M147.32,480.29s-12.64-50.15,29.17-89.76c0,0-26.22,30.47-25.71,81.08C151.13,506.54,147.32,480.29,147.32,480.29Z"/><path class="cls-27" d="M153.72,495.08s-25.79-44.82,3.69-94.31c0,0-17,36.45-2.72,85C164.51,519.31,153.72,495.08,153.72,495.08Z"/><path class="cls-27" d="M129.12,492.28s-25.79-44.82,3.69-94.31c0,0-17,36.45-2.72,85C139.92,516.51,129.12,492.28,129.12,492.28Z"/><path class="cls-27" d="M130.87,503.59s-31.48-41-8.8-94c0,0-12,38.37,8.53,84.63C144.77,526.18,130.87,503.59,130.87,503.59Z"/><path class="cls-27" d="M140.85,520.69s-31.48-41-8.8-94c0,0-12,38.37,8.53,84.63C154.75,543.28,140.85,520.69,140.85,520.69Z"/><path class="cls-27" d="M178,524.27s-31.48-41-8.8-94c0,0-12,38.37,8.53,84.63C191.93,546.86,178,524.27,178,524.27Z"/><path class="cls-27" d="M179.66,495.07s-25.78-44.83,3.72-94.3c0,0-17,36.44-2.75,85C190.45,519.31,179.66,495.07,179.66,495.07Z"/><path class="cls-27" d="M176.09,513.46s-13.51-49.92,27.6-90.25c0,0-25.69,30.92-24.3,81.52C180.35,539.65,176.09,513.46,176.09,513.46Z"/><path class="cls-27" d="M183.15,489.44s-21.43-47.07,12.61-93.53c0,0-20.33,34.68-10.76,84.38C191.6,514.59,183.15,489.44,183.15,489.44Z"/><path class="cls-27" d="M138.3,482.69s25.79-44.82-3.69-94.3c0,0,17,36.45,2.72,85C127.51,506.92,138.3,482.69,138.3,482.69Z"/><path class="cls-27" d="M127.94,469.33s7.16-37.5-2.53-56c0,0,15.59,14.75,7.79,56Z"/><path class="cls-27" d="M126.45,476.5s14.74-35.22,9.08-55.36c0,0,12.21,17.65-3.93,56.45Z"/><path class="cls-27" d="M181.44,487.62s14.74-35.22,9.08-55.36c0,0,12.21,17.65-3.93,56.45Z"/><path class="cls-27" d="M188.2,472s14.74-35.22,9.08-55.36c0,0,12.21,17.65-3.93,56.45Z"/><path class="cls-27" d="M111.23,481.36s.19-38.18-12.73-54.64c0,0,18,11.65,17.91,53.68Z"/><path class="cls-27" d="M99.23,476.68S99.41,438.5,86.5,422c0,0,18,11.65,17.91,53.68Z"/><path class="cls-27" d="M96.64,474.74s11.84-36.3,4.57-55.92c0,0,13.6,16.6.65,56.58Z"/><path class="cls-27" d="M215.08,444.05s0-67.62,53.35-90.54c0,0-52.26,35.53-34.38,96.27C245.8,489.71,215.08,444.05,215.08,444.05Z"/><path class="cls-27" d="M210.93,454.94s-17.78-68.19,41-122.05c0,0-36.89,41.43-36.17,110.26C216.28,490.64,210.93,454.94,210.93,454.94Z"/><path class="cls-27" d="M219.92,475s-36.28-61,5.19-128.24c0,0-23.85,49.56-3.82,115.61C235.11,508,219.92,475,219.92,475Z"/><path class="cls-27" d="M185.32,471.24S149,410.29,190.51,343c0,0-23.85,49.56-3.82,115.61C200.51,504.19,185.32,471.24,185.32,471.24Z"/><path class="cls-27" d="M187.78,486.63s-44.29-55.79-12.38-127.78c0,0-16.87,52.17,12,115.08C207.34,517.35,187.78,486.63,187.78,486.63Z"/><path class="cls-27" d="M201.82,509.87s-44.29-55.79-12.38-127.78c0,0-16.87,52.17,12,115.08C221.37,540.6,201.82,509.87,201.82,509.87Z"/><path class="cls-27" d="M254.12,514.74S209.83,459,241.74,387c0,0-16.87,52.17,12,115.08C273.68,545.47,254.12,514.74,254.12,514.74Z"/><path class="cls-27" d="M256.42,475s-36.26-61,5.23-128.24c0,0-23.87,49.55-3.86,115.61C271.6,508,256.42,475,256.42,475Z"/><path class="cls-27" d="M251.39,500.05s-19-67.88,38.83-122.72c0,0-36.13,42-34.18,110.85C257.39,535.66,251.39,500.05,251.39,500.05Z"/><path class="cls-27" d="M261.33,467.39s-30.14-64,17.74-127.18c0,0-28.6,47.15-15.14,114.74C273.21,501.58,261.33,467.39,261.33,467.39Z"/><path class="cls-27" d="M198.24,458.21s36.28-61-5.19-128.24c0,0,23.85,49.56,3.82,115.61C183.06,491.16,198.24,458.21,198.24,458.21Z"/><path class="cls-27" d="M183.66,440s10.08-51-3.56-76.21c0,0,21.93,20.06,11,76.21Z"/><path class="cls-27" d="M181.57,449.78s20.74-47.89,12.78-75.28c0,0,17.18,24-5.53,76.76Z"/><path class="cls-27" d="M258.92,464.91S279.66,417,271.7,389.63c0,0,17.18,24-5.53,76.76Z"/><path class="cls-27" d="M268.43,443.62s20.74-47.89,12.78-75.28c0,0,17.18,24-5.53,76.76Z"/><path class="cls-27" d="M160.16,456.4s.26-51.92-17.91-74.3c0,0,25.35,15.84,25.19,73Z"/><path class="cls-27" d="M143.27,450s.26-51.92-17.91-74.3c0,0,25.35,15.84,25.19,73Z"/><path class="cls-27" d="M139.63,447.4s16.66-49.36,6.43-76c0,0,19.13,22.57.92,76.94Z"/><path class="cls-27" d="M68.65,451.29s0-41.11-31.35-55c0,0,30.71,21.6,20.21,58.53C50.59,479.05,68.65,451.29,68.65,451.29Z"/><path class="cls-27" d="M71.09,457.91S81.54,416.46,47,383.71c0,0,21.68,25.19,21.26,67C67.94,479.62,71.09,457.91,71.09,457.91Z"/><path class="cls-27" d="M65.8,470.14s21.32-37.06-3-78c0,0,14,30.13,2.25,70.29C56.88,490.17,65.8,470.14,65.8,470.14Z"/><path class="cls-27" d="M86.13,467.82s21.32-37.06-3-78c0,0,14,30.13,2.25,70.29C77.21,487.86,86.13,467.82,86.13,467.82Z"/><path class="cls-27" d="M84.69,477.18s26-33.92,7.28-77.68c0,0,9.92,31.72-7.06,70C73.2,495.85,84.69,477.18,84.69,477.18Z"/><path class="cls-27" d="M76.44,491.31s26-33.92,7.28-77.68c0,0,9.92,31.72-7.06,70C64.95,510,76.44,491.31,76.44,491.31Z"/><path class="cls-27" d="M45.7,494.27s26-33.92,7.28-77.68c0,0,9.92,31.72-7.06,70C34.21,512.95,45.7,494.27,45.7,494.27Z"/><path class="cls-27" d="M44.35,470.14s21.31-37.06-3.07-78c0,0,14,30.13,2.27,70.29C35.43,490.17,44.35,470.14,44.35,470.14Z"/><path class="cls-27" d="M47.31,485.34s11.17-41.27-22.82-74.61c0,0,21.23,25.56,20.09,67.39C43.78,507,47.31,485.34,47.31,485.34Z"/><path class="cls-27" d="M41.47,465.48S59.18,426.57,31,388.16c0,0,16.81,28.67,8.9,69.76C34.48,486.27,41.47,465.48,41.47,465.48Z"/><path class="cls-27" d="M78.54,459.9s-21.32-37.06,3-78c0,0-14,30.13-2.25,70.29C87.47,479.93,78.54,459.9,78.54,459.9Z"/><path class="cls-27" d="M87.11,448.86s-5.92-31,2.09-46.33c0,0-12.89,12.19-6.44,46.33Z"/><path class="cls-27" d="M88.34,454.78S76.16,425.66,80.83,409c0,0-10.1,14.59,3.25,46.67Z"/><path class="cls-27" d="M42.88,464s-12.19-29.12-7.51-45.77c0,0-10.1,14.59,3.25,46.67Z"/><path class="cls-27" d="M37.3,451s-12.19-29.12-7.51-45.77c0,0-10.1,14.59,3.25,46.67Z"/><path class="cls-27" d="M100.93,458.8s-.15-31.57,10.53-45.17c0,0-14.9,9.63-14.81,44.37Z"/><path class="cls-27" d="M110.85,454.93s-.15-31.57,10.53-45.17c0,0-14.9,9.63-14.81,44.37Z"/><path class="cls-27" d="M113,453.33s-9.79-30-3.78-46.23c0,0-11.24,13.72-.54,46.78Z"/><path class="cls-27" d="M7.14,445.91s0-46.36,31.35-62.07c0,0-30.71,24.36-20.21,66C25.2,477.21,7.14,445.91,7.14,445.91Z"/><path class="cls-27" d="M4.7,453.38S-5.75,406.63,28.82,369.7c0,0-21.68,28.4-21.26,75.59C7.85,477.85,4.7,453.38,4.7,453.38Z"/><path class="cls-27" d="M10,467.16s-21.32-41.79,3-87.92c0,0-14,34-2.25,79.26C18.92,489.75,10,467.16,10,467.16Z"/><path class="cls-27" d="M-.65,491s-26-38.25-7.28-87.6c0,0-9.92,35.77,7.06,78.9C10.84,512.1-.65,491-.65,491Z"/><path class="cls-27" d="M30.09,494.38s-26-38.25-7.28-87.6c0,0-9.92,35.77,7.06,78.9C41.58,515.44,30.09,494.38,30.09,494.38Z"/><path class="cls-27" d="M31.44,467.16s-21.31-41.8,3.07-87.92c0,0-14,34-2.27,79.26C40.36,489.76,31.44,467.16,31.44,467.16Z"/><path class="cls-27" d="M28.49,484.3S17.31,437.77,51.3,400.17c0,0-21.23,28.83-20.09,76C32,508.71,28.49,484.3,28.49,484.3Z"/><path class="cls-27" d="M34.32,461.91S16.61,418,44.75,374.72c0,0-16.81,32.33-8.9,78.66C41.31,485.35,34.32,461.91,34.32,461.91Z"/><path class="cls-27" d="M-2.75,455.62s21.32-41.79-3-87.92c0,0,14,34,2.25,79.26C-11.68,478.21-2.75,455.62-2.75,455.62Z"/><path class="cls-27" d="M32.91,460.21s12.19-32.83,7.51-51.61c0,0,10.1,16.45-3.25,52.62Z"/><path class="cls-27" d="M38.5,445.62S50.68,412.78,46,394c0,0,10.1,16.45-3.25,52.62Z"/><path class="cls-27" d="M570.67,448s0-59.8,45.61-80.07c0,0-44.68,31.42-29.39,85.13C596.94,488.41,570.67,448,570.67,448Z"/><path class="cls-27" d="M567.13,457.66s-15.2-60.3,35.08-107.94c0,0-31.53,36.64-30.92,97.51C571.7,489.23,567.13,457.66,567.13,457.66Z"/><path class="cls-27" d="M574.82,475.44s-31-53.9,4.44-113.41c0,0-20.39,43.83-3.27,102.24C587.8,504.58,574.82,475.44,574.82,475.44Z"/><path class="cls-27" d="M545.24,472.07s-31-53.9,4.44-113.41c0,0-20.39,43.83-3.27,102.24C558.22,501.22,545.24,472.07,545.24,472.07Z"/><path class="cls-27" d="M547.34,485.68s-37.86-49.34-10.58-113c0,0-14.42,46.14,10.26,101.78C564.06,512.85,547.34,485.68,547.34,485.68Z"/><path class="cls-27" d="M559.34,506.24s-37.86-49.34-10.58-113c0,0-14.42,46.14,10.26,101.78C576.05,533.41,559.34,506.24,559.34,506.24Z"/><path class="cls-27" d="M604,510.54s-37.86-49.34-10.58-113c0,0-14.42,46.14,10.26,101.78C620.77,537.72,604,510.54,604,510.54Z"/><path class="cls-27" d="M606,475.44S575,421.52,610.49,362c0,0-20.41,43.82-3.3,102.24C619,504.58,606,475.44,606,475.44Z"/><path class="cls-27" d="M601.72,497.55s-16.25-60,33.19-108.53c0,0-30.89,37.19-29.22,98C606.85,529,601.72,497.55,601.72,497.55Z"/><path class="cls-27" d="M610.21,468.66s-25.77-56.6,15.16-112.48c0,0-24.45,41.7-12.94,101.47C620.37,498.9,610.21,468.66,610.21,468.66Z"/><path class="cls-27" d="M556.28,460.55s31-53.9-4.44-113.41c0,0,20.39,43.83,3.27,102.24C543.3,489.69,556.28,460.55,556.28,460.55Z"/><path class="cls-27" d="M543.82,444.48s8.61-45.1-3-67.4c0,0,18.75,17.74,9.37,67.4Z"/><path class="cls-27" d="M542,453.1s17.73-42.35,10.92-66.58c0,0,14.69,21.22-4.73,67.88Z"/><path class="cls-27" d="M608.16,466.48s17.73-42.35,10.92-66.58c0,0,14.69,21.22-4.73,67.88Z"/><path class="cls-27" d="M616.28,447.65S634,405.29,627.2,381.07c0,0,14.69,21.22-4.73,67.88Z"/><path class="cls-27" d="M523.72,458.94s.22-45.92-15.31-65.71c0,0,21.67,14,21.54,64.55Z"/><path class="cls-27" d="M509.29,453.31s.22-45.92-15.31-65.71c0,0,21.67,14,21.54,64.55Z"/><path class="cls-27" d="M506.18,451s14.24-43.65,5.5-67.24c0,0,16.36,20,.78,68Z"/><path class="cls-27" d="M611.22,444.75s0-49.72,37.93-66.58c0,0-37.15,26.13-24.44,70.79C633.06,478.33,611.22,444.75,611.22,444.75Z"/><path class="cls-27" d="M608.27,452.76S595.63,402.61,637.44,363c0,0-26.22,30.47-25.71,81.08C612.07,479,608.27,452.76,608.27,452.76Z"/><path class="cls-27" d="M614.66,467.54s-25.79-44.82,3.69-94.3c0,0-17,36.45-2.72,85C625.46,491.78,614.66,467.54,614.66,467.54Z"/><path class="cls-27" d="M590.07,464.75s-25.79-44.82,3.69-94.31c0,0-17,36.45-2.72,85C600.86,489,590.07,464.75,590.07,464.75Z"/><path class="cls-27" d="M591.81,476.06s-31.48-41-8.8-94c0,0-12,38.37,8.53,84.63C605.72,498.65,591.81,476.06,591.81,476.06Z"/><path class="cls-27" d="M601.79,493.16s-31.48-41-8.8-94c0,0-12,38.37,8.53,84.63C615.69,515.75,601.79,493.16,601.79,493.16Z"/><path class="cls-27" d="M639,496.74s-31.48-41-8.8-94c0,0-12,38.37,8.53,84.63C652.87,519.33,639,496.74,639,496.74Z"/><path class="cls-27" d="M640.61,467.54s-25.78-44.83,3.72-94.3c0,0-17,36.44-2.75,85C651.4,491.78,640.61,467.54,640.61,467.54Z"/><path class="cls-27" d="M637,485.93s-13.51-49.92,27.6-90.25c0,0-25.69,30.92-24.3,81.52C641.3,512.12,637,485.93,637,485.93Z"/><path class="cls-27" d="M644.09,461.91s-21.43-47.07,12.61-93.53c0,0-20.33,34.68-10.76,84.38C652.54,487.06,644.09,461.91,644.09,461.91Z"/><path class="cls-27" d="M599.25,455.16s25.79-44.82-3.69-94.31c0,0,17,36.45,2.72,85C588.45,479.39,599.25,455.16,599.25,455.16Z"/><path class="cls-27" d="M588.88,441.8s7.16-37.5-2.53-56c0,0,15.59,14.75,7.79,56Z"/><path class="cls-27" d="M587.4,449s14.74-35.22,9.08-55.36c0,0,12.21,17.65-3.93,56.45Z"/><path class="cls-27" d="M642.39,460.09s14.74-35.22,9.08-55.36c0,0,12.21,17.65-3.93,56.45Z"/><path class="cls-27" d="M649.14,444.43s14.74-35.22,9.08-55.36c0,0,12.21,17.65-3.93,56.45Z"/><path class="cls-27" d="M572.18,453.83s.19-38.18-12.73-54.64c0,0,18,11.65,17.91,53.68Z"/><path class="cls-27" d="M560.17,449.15s.19-38.18-12.73-54.64c0,0,18,11.65,17.91,53.68Z"/><path class="cls-27" d="M557.58,447.21s11.84-36.3,4.57-55.92c0,0,13.6,16.6.65,56.58Z"/><path class="cls-27" d="M477,443.69s0-41.11,31.35-55c0,0-30.71,21.6-20.21,58.53C495,471.44,477,443.69,477,443.69Z"/><path class="cls-27" d="M474.52,450.31s-10.45-41.46,24.12-74.2c0,0-21.68,25.19-21.26,67C477.67,472,474.52,450.31,474.52,450.31Z"/><path class="cls-27" d="M479.81,462.53s-21.32-37.06,3-78c0,0-14,30.13-2.25,70.29C488.73,482.56,479.81,462.53,479.81,462.53Z"/><path class="cls-27" d="M459.47,460.22s-21.32-37.06,3-78c0,0-14,30.13-2.25,70.29C468.4,480.25,459.47,460.22,459.47,460.22Z"/><path class="cls-27" d="M460.92,469.57s-26-33.92-7.28-77.68c0,0-9.92,31.72,7.06,70C472.41,488.25,460.92,469.57,460.92,469.57Z"/><path class="cls-27" d="M469.17,483.7s-26-33.92-7.28-77.68c0,0-9.92,31.72,7.06,70C480.66,502.38,469.17,483.7,469.17,483.7Z"/><path class="cls-27" d="M499.91,486.66s-26-33.92-7.28-77.68c0,0-9.92,31.72,7.06,70C511.4,505.34,499.91,486.66,499.91,486.66Z"/><path class="cls-27" d="M501.26,462.53s-21.31-37.06,3.07-78c0,0-14,30.13-2.27,70.29C510.18,482.57,501.26,462.53,501.26,462.53Z"/><path class="cls-27" d="M498.3,477.73s-11.17-41.27,22.82-74.61c0,0-21.23,25.56-20.09,67.39C501.83,499.38,498.3,477.73,498.3,477.73Z"/><path class="cls-27" d="M504.14,457.87S486.43,419,514.56,380.55c0,0-16.81,28.67-8.9,69.76C511.13,478.66,504.14,457.87,504.14,457.87Z"/><path class="cls-27" d="M467.07,452.29s21.32-37.06-3-78c0,0,14,30.13,2.25,70.29C458.14,472.33,467.07,452.29,467.07,452.29Z"/><path class="cls-27" d="M458.5,441.25s5.92-31-2.09-46.33c0,0,12.89,12.19,6.44,46.33Z"/><path class="cls-27" d="M457.27,447.17s12.19-29.12,7.51-45.77c0,0,10.1,14.59-3.25,46.67Z"/><path class="cls-27" d="M502.73,456.37s12.19-29.12,7.51-45.77c0,0,10.1,14.59-3.25,46.67Z"/><path class="cls-27" d="M508.31,443.42s12.19-29.12,7.51-45.77c0,0,10.1,14.59-3.25,46.67Z"/><path class="cls-27" d="M444.68,451.19s.15-31.57-10.53-45.17c0,0,14.9,9.63,14.81,44.37Z"/><path class="cls-27" d="M434.76,447.32s.15-31.57-10.53-45.17c0,0,14.9,9.63,14.81,44.37Z"/><path class="cls-27" d="M432.62,445.72s9.79-30,3.78-46.23c0,0,11.24,13.72.54,46.78Z"/><path class="cls-27" d="M412,452.89s0-41.11,31.35-55c0,0-30.71,21.6-20.21,58.53C430.06,480.64,412,452.89,412,452.89Z"/><path class="cls-27" d="M409.56,459.5S399.11,418,433.68,385.3c0,0-21.68,25.19-21.26,67C412.71,481.21,409.56,459.5,409.56,459.5Z"/><path class="cls-27" d="M414.85,471.73s-21.32-37.06,3-78c0,0-14,30.13-2.25,70.29C423.77,491.76,414.85,471.73,414.85,471.73Z"/><path class="cls-27" d="M394.52,469.42s-21.32-37.06,3-78c0,0-14,30.13-2.25,70.29C403.44,489.45,394.52,469.42,394.52,469.42Z"/><path class="cls-27" d="M396,478.77s-26-33.92-7.28-77.68c0,0-9.92,31.72,7.06,70C407.45,497.45,396,478.77,396,478.77Z"/><path class="cls-27" d="M404.21,492.9s-26-33.92-7.28-77.68c0,0-9.92,31.72,7.06,70C415.7,511.58,404.21,492.9,404.21,492.9Z"/><path class="cls-27" d="M434.95,495.86s-26-33.92-7.28-77.68c0,0-9.92,31.72,7.06,70C446.44,514.54,434.95,495.86,434.95,495.86Z"/><path class="cls-27" d="M436.3,471.73s-21.31-37.06,3.07-78c0,0-14,30.13-2.27,70.29C445.22,491.76,436.3,471.73,436.3,471.73Z"/><path class="cls-27" d="M433.34,486.93s-11.17-41.27,22.82-74.61c0,0-21.23,25.56-20.09,67.39C436.87,508.58,433.34,486.93,433.34,486.93Z"/><path class="cls-27" d="M439.18,467.07s-17.71-38.91,10.42-77.32c0,0-16.81,28.67-8.9,69.76C446.17,487.86,439.18,467.07,439.18,467.07Z"/><path class="cls-27" d="M402.11,461.49s21.32-37.06-3-78c0,0,14,30.13,2.25,70.29C393.18,481.52,402.11,461.49,402.11,461.49Z"/><path class="cls-27" d="M393.54,450.45s5.92-31-2.09-46.33c0,0,12.89,12.19,6.44,46.33Z"/><path class="cls-27" d="M392.31,456.37s12.19-29.12,7.51-45.77c0,0,10.1,14.59-3.25,46.67Z"/><path class="cls-27" d="M437.77,465.57s12.19-29.12,7.51-45.77c0,0,10.1,14.59-3.25,46.67Z"/><path class="cls-27" d="M443.35,452.62s12.19-29.12,7.51-45.77c0,0,10.1,14.59-3.25,46.67Z"/><path class="cls-27" d="M379.73,460.39s.15-31.57-10.53-45.17c0,0,14.9,9.63,14.81,44.37Z"/><path class="cls-27" d="M369.8,456.52S370,425,359.28,411.35c0,0,14.9,9.63,14.81,44.37Z"/><path class="cls-27" d="M367.66,454.92s9.79-30,3.78-46.23c0,0,11.24,13.72.54,46.78Z"/><path class="cls-27" d="M347.73,453.8s-3.7-21.93,11.77-32.18c0,0-14.44,14.28-5.51,33C359.86,467,347.73,453.8,347.73,453.8Z"/><path class="cls-27" d="M347,457.55a43.59,43.59,0,0,1,6.19-41.75s-9.3,15.39-5.31,37.67C350.66,468.85,347,457.55,347,457.55Z"/><path class="cls-27" d="M350.95,463.6a43.59,43.59,0,0,1-5.38-41.86s-4.77,17.33,5.12,37.69C357.51,473.48,350.95,463.6,350.95,463.6Z"/><path class="cls-27" d="M339.89,464.19a43.59,43.59,0,0,1-5.38-41.86s-4.77,17.33,5.12,37.69C346.45,474.08,339.89,464.19,339.89,464.19Z"/><path class="cls-27" d="M341.5,469.05a43.59,43.59,0,0,1-10.87-40.78S328.2,446.08,340.69,465C349.31,478,341.5,469.05,341.5,469.05Z"/><path class="cls-27" d="M347.17,475.85a43.59,43.59,0,0,1-10.87-40.78s-2.44,17.81,10.06,36.69C355,484.78,347.17,475.85,347.17,475.85Z"/><path class="cls-27" d="M363.84,474.67A43.59,43.59,0,0,1,353,433.88s-2.44,17.81,10.06,36.69C371.65,483.6,363.84,474.67,363.84,474.67Z"/><path class="cls-27" d="M362.39,461.67A43.59,43.59,0,0,1,357,419.81s-4.77,17.33,5.11,37.7C368.95,471.56,362.39,461.67,362.39,461.67Z"/><path class="cls-27" d="M362.18,470a43.59,43.59,0,0,1,5.46-41.85s-9,15.55-4.65,37.75C366,481.27,362.18,470,362.18,470Z"/><path class="cls-27" d="M363.51,458.93a43.59,43.59,0,0,1-1.39-42.18s-6.39,16.8,1.53,38C369.1,469.39,363.51,458.93,363.51,458.93Z"/><path class="cls-27" d="M343.23,459.28A43.59,43.59,0,0,0,334.59,418s10.19,14.81,7.52,37.29C340.27,470.77,343.23,459.28,343.23,459.28Z"/><path class="cls-27" d="M337.66,454.16s.37-17.07-5.28-24.53c0,0,8,5.34,7.6,24.14Z"/><path class="cls-27" d="M337.54,457.43s3.88-16.63-.11-25.09c0,0,6.7,6.87,2.46,25.18Z"/><path class="cls-27" d="M362.62,458.25s3.88-16.63-.11-25.09c0,0,6.7,6.87,2.46,25.18Z"/><path class="cls-27" d="M364.43,450.84s3.88-16.63-.11-25.09c0,0,6.7,6.87,2.46,25.18Z"/><path class="cls-27" d="M331.19,460.71s-2.76-16.85-9.68-23.15c0,0,8.81,3.8,11.89,22.34Z"/><path class="cls-27" d="M325.55,459.54s-2.76-16.85-9.68-23.15c0,0,8.81,3.8,11.89,22.34Z"/><path class="cls-27" d="M324.26,458.88s2.52-16.89-2.14-25c0,0,7.23,6.31,4.49,24.9Z"/><path class="cls-27" d="M298.42,437.44s6.83-32-21.77-47c0,0,26.7,20.85,10.19,48.23C276,456.68,298.42,437.44,298.42,437.44Z"/><path class="cls-27" d="M299.72,442.91s17.2-30.91-11.44-61c0,0,17.19,22.46,9.82,55C293,459.4,299.72,442.91,299.72,442.91Z"/><path class="cls-27" d="M292.47,451.74s27.19-26.06,10-61.11c0,0,8.81,25.31-9.47,55C280.34,466.17,292.47,451.74,292.47,451.74Z"/><path class="cls-27" d="M312.91,452.61s27.19-26.06,10-61.11c0,0,8.81,25.31-9.47,55C300.78,467,312.91,452.61,312.91,452.61Z"/><path class="cls-27" d="M309.93,459.7s31.31-23,20.09-59.54c0,0,4.5,26-18.59,53.56C295.49,472.74,309.93,459.7,309.93,459.7Z"/><path class="cls-27" d="M299.45,469.62s31.31-23,20.09-59.54c0,0,4.5,26-18.59,53.56C285,482.66,299.45,469.62,299.45,469.62Z"/><path class="cls-27" d="M268.64,467.89s31.31-23,20.09-59.54c0,0,4.5,26-18.59,53.56C254.2,480.93,268.64,467.89,268.64,467.89Z"/><path class="cls-27" d="M271.32,448.92s27.18-26.07,9.93-61.12c0,0,8.82,25.3-9.45,55C259.2,463.35,271.32,448.92,271.32,448.92Z"/><path class="cls-27" d="M271.71,461.15s17.88-30.67-10.1-61.1c0,0,16.69,22.7,8.6,55.12C264.63,477.54,271.71,461.15,271.71,461.15Z"/><path class="cls-27" d="M269.25,444.92s23.94-28,2.58-61.58c0,0,11.81,24.53-2.82,55.49C258.91,460.19,269.25,444.92,269.25,444.92Z"/><path class="cls-27" d="M306.74,445.44s-14.86-31.66,16-60.31c0,0-18.83,21.62-13.9,54.44C312.21,462.21,306.74,445.44,306.74,445.44Z"/><path class="cls-27" d="M317,438s-.69-24.92,9.76-35.81c0,0-14.74,7.8-14.06,35.24Z"/><path class="cls-27" d="M317.26,442.74s-7.18-24.28.2-36.63c0,0-12.38,10-4.55,36.77Z"/><path class="cls-27" d="M270.9,443.93s-7.18-24.28.2-36.63c0,0-12.38,10-4.55,36.77Z"/><path class="cls-27" d="M267.54,433.12s-7.18-24.28.2-36.63c0,0-12.38,10-4.55,36.77Z"/><path class="cls-27" d="M329,447.52s5.1-24.6,17.89-33.79c0,0-16.29,5.54-22,32.61Z"/><path class="cls-27" d="M339.42,445.81s5.1-24.6,17.89-33.79c0,0-16.29,5.54-22,32.61Z"/><path class="cls-27" d="M341.8,444.84s-4.67-24.65,4-36.49c0,0-13.37,9.21-8.31,36.36Z"/><path class="cls-27" d="M648.82,180.35l-.47,7.13,4.58.3-5.62,15.49,11-4.39-5.91,8.31,5.35.35-.4,6.11a15.57,15.57,0,0,0,9.72-4.43s0,9.76-9,12.63a60.31,60.31,0,0,0,9-2.87s-2.73,8-9.31,7.58c0,0-3.26,1.68,6.58.43,0,0-3.78,4.79-16.55,2.7,0,0,13.08,6.93,24.12,1.78,0,0-2.17,4.38-5.41,5.74,0,0,2.34,1.1,6-.55,0,0-3.89,4.89-13.33,1.65a5.71,5.71,0,0,0,4.73,3c3.45.23-2.53,1.83-9.61-2.2s-8-2.83-8-2.83-2.09,6.26,9.39,7.22,20.46,1.65,21,1.37-.45,3.75-9.4,5.68a6.09,6.09,0,0,0,5.64.37s.52,3.29-5,3-5.85,1.19-3.13,1.26-.48,2.59-3.74,2.59-5.3,2.38-1.37,2.53,11.6-3.33,11.6-3.33-.79,4-2.46,3.93,4.62.61,7.08-2-1,3.71-4.31,4.55,9,1.33,10.58-1.41c0,0-1.23,6-8.85,7s.27,2.22.27,2.22a15.53,15.53,0,0,1-10.73,3.6s-4.45,2.33.35,2.65a37.9,37.9,0,0,0,9.28-.65s-.05,2.41-5.89,3.5,11.27.95,14.51-2a21.08,21.08,0,0,1-11,8.2s5.16,1.28,8.7-1.42a16.31,16.31,0,0,1-11.07,5.57s-2.1,3.22,5.59,2.78,12-1,12-1-2.72,4.65-8.07,4.72a10.24,10.24,0,0,0,5.6,1s-3,3.69-10.14,2.69l-7.26-1.31a5.58,5.58,0,0,0,5.73,5.52c5.75.27,2.36,2.36-2.55,2s7.56,4.8,12.89,3.47-.76,2-.76,2,4.94,3.05,7.68,1.24-5.28,11.76-17.9,7.4-.26,2.33-.26,2.33-7.86-1.77-12.17-4.89,1.64,5.35,7,5.91,1.14,3.43,1.14,3.43,12.32,7.31,25,5.83l-6.11,3.59L693,340l-15.53,0,6.34,2.51L673,344.11l6.48.42-18.51.68s-6.35,4,8.49,5l24.45,1.6s3.44,4.93-2.2,4.56,2.76,2.7,2.76,2.7a43,43,0,0,0-7.52-.49c-2.33.27,3.79,3,3.79,3a40.35,40.35,0,0,0-9.4-.61c-4.85.31-2.59,4.24-2.59,4.24l-4.39-.29s1.4,4.29,11.85,5l18.6,1.22s0,7.13-9,6.54c0,0,4.59,3.66,8.35,3.9,0,0-8.5,1.54-14.29.32l6.31,2.93-10-.66s-1.15,4.75,9.09,5.42,4.28,2,4.28,2-.8,2.68,2.33,2.88-4.48,1.18-9.29.86,2.87,4.18,2.87,4.18l-9.19-.6s-7.3,9,7.23,11.39c0,0,7.18,2.57,13.58.89a20.21,20.21,0,0,1-6.41,1.68,13.46,13.46,0,0,0,12.22,2.48s-1.76,4.5-9.15,5.07c0,0,3.21,2.31,8.71,1.62,0,0-6.5,6.29-17.69,4.09a6.53,6.53,0,0,0,6.37,5.24c5.64.37-19.72,3.12-27.37-1.79L685,435.86s-17.8,2.61-27.16-8.28l3,5.86s-12.61-6.07-17.37-10.37c0,0-6.76,10.36-17.63,9.6l-1.28-2.86s-3.77,6.26-13.38,5.63l5.08-7s-4.43,6.85-17.4,6.21l6.22-5.26s-6.84,8.37-20.22,4.34l6.89-2.7s-15.67,2.12-22.63-3.79c0,0,12.66-1.06,20.71-5.36S601.45,414,601.45,414s-14.64,8.91-26.71,4.13l6.66-2.29s-13,2.93-15.52-.18l7.74-2.85L568.13,410s3.62-.81,9-2.35l-5.91-5.84a29.76,29.76,0,0,0,8.57.56c5.68-.26,25.52-8.4,25.52-8.4l-13.65.16,5.5-3.84s-14.77,4.49-20.49,2l8.23-3.87s-11.25,5.14-15.47,2.35l6.62-5-8.14-.74s34.09-7.84,37.27-14.77c0,0-12.73,5.25-20.86,4.51l5.12-4.49s-8.67,4.26-13.63,3.1l6.27-6.1-6.92,0,3-4.42-7.44,1.4s15.26-5.39,20.48-11.34c0,0-8.05,1.15-13.44.17,0,0,18.17-8.26,20.22-14,0,0-7.76,6.42-16.29,5.23L600,331.15,590.38,333l14.79-11.2s11.82-7.41-1.3-5.75-15-4.34-15-4.34l9.9-.61L587,308.27s18.64.59,25.42-3.58A20.47,20.47,0,0,0,621,294.34s-7.64,7.69-17.25,7.06l2.75-3.6s-9.7,4-14.09,3.7l16.61-10-9.12,1.5s11.71-2.59,20.78-9.76,7.54-9.37,7.54-9.37-11.32,6.19-20.32,5.81.68-3.94.68-3.94l-11.45-1.38s21.31-4.9,29.45-10.67,0-2.94-4.53-1.35-14.14,1.17-17.45.54,18.89-6.53,24.72-12.23,4-6.09-1-4.26c-19.48,7.17-16.78.6-17.82.53s10-2.31,10-2.31l-9.5-4.74s13.62-1.68,16.23-2.68c5.59-2.15,8.38-8.32,1.84-8-12.51.67-15.89-3-15.89-3l16.45-4.78-9.83-2.31L635,216.68s-13.17-5.39-13-8.32,7.76,3.24,16.12,3.78c0,0-1.29-2.81-4.06-8.45s1.53-.95,4.67-.74-.18-6.94-.18-6.94,0,.42,3.73.66-1.62-4.09-1.54-8.5,1.79-1.77,3.77,0S648.82,180.35,648.82,180.35Z"/><path class="cls-27" d="M133,295.56l-.47,7.13,4.58.3-5.62,15.49,11-4.39-5.91,8.31,5.35.35-.4,6.11a15.57,15.57,0,0,0,9.72-4.43s0,9.76-9,12.63a60.33,60.33,0,0,0,9-2.87s-2.73,8-9.31,7.58c0,0-3.26,1.68,6.58.43,0,0-3.78,4.79-16.55,2.7,0,0,13.08,6.93,24.12,1.78,0,0-2.18,4.38-5.41,5.74,0,0,2.34,1.1,6-.55,0,0-3.89,4.89-13.33,1.65a5.71,5.71,0,0,0,4.73,3c3.45.23-2.53,1.83-9.61-2.2s-8-2.83-8-2.83-2.09,6.26,9.39,7.22,20.46,1.65,21,1.37-.46,3.75-9.4,5.68a6.09,6.09,0,0,0,5.64.37s.52,3.29-5,3-5.85,1.19-3.13,1.26-.48,2.59-3.74,2.59-5.3,2.38-1.37,2.53,11.6-3.33,11.6-3.33-.79,4-2.46,3.93,4.62.61,7.08-2-1,3.71-4.31,4.55,9,1.33,10.58-1.41c0,0-1.23,6-8.85,7s.27,2.22.27,2.22a15.53,15.53,0,0,1-10.73,3.6s-4.45,2.33.35,2.65a37.9,37.9,0,0,0,9.28-.65s-.05,2.41-5.89,3.5,11.27.95,14.51-2a21.08,21.08,0,0,1-11,8.2s5.16,1.28,8.7-1.42A16.31,16.31,0,0,1,152,406s-2.1,3.22,5.59,2.78,12-1,12-1-2.72,4.65-8.07,4.72a10.24,10.24,0,0,0,5.6,1s-3,3.69-10.14,2.69l-7.26-1.31a5.58,5.58,0,0,0,5.73,5.52c5.75.27,2.36,2.36-2.55,2s7.56,4.8,12.89,3.47-.76,2-.76,2,4.94,3.05,7.68,1.24-5.28,11.76-17.9,7.4-.26,2.33-.26,2.33-7.86-1.77-12.17-4.89,1.64,5.35,7,5.91,1.14,3.43,1.14,3.43,12.32,7.31,25,5.83l-6.11,3.59,7.82,2.4-15.53,0,6.34,2.51-10.81,1.6,6.48.42-18.51.68s-6.35,4,8.49,5l24.45,1.6s3.44,4.93-2.2,4.56,2.76,2.7,2.76,2.7a42.94,42.94,0,0,0-7.52-.49c-2.33.27,3.79,3,3.79,3a40.35,40.35,0,0,0-9.4-.61c-4.85.31-2.59,4.24-2.59,4.24l-4.39-.29s1.4,4.29,11.85,5l18.6,1.22s0,7.13-9,6.54c0,0,4.59,3.66,8.35,3.9,0,0-8.5,1.54-14.29.32l6.31,2.93-10-.66s-1.15,4.75,9.09,5.42,4.28,2,4.28,2-.8,2.68,2.33,2.88-4.48,1.18-9.29.86,2.87,4.18,2.87,4.18l-9.19-.6s-7.3,9,7.23,11.39c0,0,7.18,2.57,13.58.89A20.21,20.21,0,0,1,184.8,528,13.46,13.46,0,0,0,197,530.44s-1.76,4.5-9.15,5.07c0,0,3.21,2.31,8.71,1.62,0,0-6.5,6.29-17.69,4.09a6.53,6.53,0,0,0,6.37,5.24c5.64.37-19.72,3.12-27.37-1.79l11.33,6.41s-17.8,2.61-27.16-8.28l3,5.86s-12.61-6.07-17.37-10.37c0,0-6.76,10.36-17.63,9.6L108.76,545s-3.77,6.26-13.38,5.63l5.08-7s-4.43,6.85-17.4,6.21l6.22-5.26s-6.84,8.37-20.22,4.34l6.89-2.7s-15.67,2.12-22.63-3.79c0,0,12.66-1.06,20.71-5.36s11.64-7.84,11.64-7.84S71,538.15,58.95,533.37l6.66-2.29s-13,2.93-15.52-.18L57.83,528l-5.48-2.88s3.62-.81,9-2.35L55.4,517a29.76,29.76,0,0,0,8.57.56c5.68-.26,25.52-8.4,25.52-8.4l-13.65.16,5.5-3.84s-14.77,4.49-20.49,2l8.23-3.87s-11.25,5.14-15.47,2.35l6.62-5-8.14-.74s34.09-7.84,37.27-14.77c0,0-12.73,5.25-20.86,4.51l5.12-4.49S65,489.69,60,488.53l6.27-6.1-6.92,0,3-4.42-7.44,1.4S70.19,474,75.4,468c0,0-8.05,1.15-13.44.17,0,0,18.17-8.26,20.22-14,0,0-7.76,6.42-16.29,5.23l18.27-13.08-9.57,1.89,14.79-11.2s11.82-7.41-1.3-5.75-15-4.34-15-4.34l9.9-.61-11.77-2.87s18.64.59,25.42-3.58a20.47,20.47,0,0,0,8.65-10.35s-7.64,7.69-17.25,7.06l2.75-3.6s-9.7,4-14.09,3.7l16.61-10-9.12,1.5s11.71-2.59,20.79-9.76,7.54-9.37,7.54-9.37-11.32,6.19-20.32,5.81.68-3.94.68-3.94l-11.45-1.38s21.31-4.9,29.45-10.67,0-2.94-4.53-1.35-14.14,1.17-17.45.54,18.89-6.53,24.72-12.23,4-6.09-1-4.26c-19.48,7.17-16.78.6-17.82.53s10-2.31,10-2.31L95.22,355s13.62-1.68,16.23-2.68c5.59-2.15,8.38-8.32,1.84-8-12.51.67-15.89-3-15.89-3l16.45-4.78L104,334.32l15.21-2.43s-13.17-5.39-13-8.32,7.76,3.24,16.12,3.78c0,0-1.29-2.81-4.06-8.45s1.53-.95,4.67-.74-.18-6.94-.18-6.94,0,.42,3.73.66-1.62-4.09-1.54-8.5,1.79-1.77,3.77,0S133,295.56,133,295.56Z"/><path class="cls-27" d="M-10.37,77.61l-.56,8.64,5.55.36-6.8,18.76,13.36-5.32L-6,110.12l6.48.42L0,117.94a18.87,18.87,0,0,0,11.77-5.37s0,11.82-10.92,15.3a73.09,73.09,0,0,0,10.91-3.48s-3.3,9.7-11.28,9.18c0,0-3.95,2,8,.52,0,0-4.57,5.8-20,3.27,0,0,15.85,8.39,29.23,2.16,0,0-2.64,5.3-6.56,7,0,0,2.84,1.33,7.29-.67,0,0-4.71,5.92-16.15,2A6.91,6.91,0,0,0,8,151.48c4.18.27-3.07,2.21-11.65-2.67s-9.69-3.43-9.69-3.43S-15.9,153-2,154.13s24.79,2,25.44,1.66-.55,4.54-11.38,6.88a7.37,7.37,0,0,0,6.84.45s.63,4-6.09,3.67S5.73,168.24,9,168.33s-.59,3.14-4.53,3.14-6.42,2.89-1.66,3.07,14.06-4,14.06-4-1,4.9-3,4.77,5.6.74,8.57-2.37-1.21,4.5-5.22,5.51,11,1.61,12.82-1.7c0,0-1.49,7.28-10.72,8.45s.33,2.69.33,2.69a18.81,18.81,0,0,1-13,4.36s-5.4,2.83.43,3.21a45.91,45.91,0,0,0,11.24-.79s-.06,2.92-7.14,4.24S24.88,200,28.8,196.44a25.54,25.54,0,0,1-13.36,9.93s6.25,1.55,10.54-1.73c0,0-4.32,5.82-13.41,6.75,0,0-2.54,3.9,6.77,3.37s14.57-1.21,14.57-1.21-3.29,5.63-9.78,5.72a12.41,12.41,0,0,0,6.79,1.21s-3.6,4.47-12.29,3.26l-8.79-1.59a6.76,6.76,0,0,0,6.94,6.68c7,.33,2.86,2.86-3.09,2.47s9.15,5.81,15.62,4.2-.93,2.48-.93,2.48,6,3.7,9.31,1.5-6.4,14.25-21.69,9-.31,2.82-.31,2.82S6.16,249.12.94,245.35s2,6.49,8.43,7.16,1.38,4.16,1.38,4.16,14.93,8.86,30.3,7.07l-7.4,4.35L43.12,271,24.3,271l7.68,3L18.89,276l7.85.51-22.43.82s-7.69,4.84,10.29,6l29.62,1.94s4.17,6-2.66,5.53,3.35,3.27,3.35,3.27-6.3-.92-9.11-.6,4.6,3.61,4.6,3.61A48.89,48.89,0,0,0,29,296.36c-5.87.38-3.13,5.13-3.13,5.13l-5.32-.35s1.69,5.2,14.35,6l22.53,1.47s-.06,8.64-10.94,7.93c0,0,5.57,4.43,10.12,4.73,0,0-10.3,1.87-17.32.39l7.65,3.55-12.15-.79s-1.39,5.76,11,6.57S51,333.39,51,333.39s-1,3.24,2.82,3.49-5.43,1.42-11.26,1S46,343,46,343l-11.14-.73S26,353.12,43.65,356.05c0,0,8.7,3.11,16.46,1.08a24.48,24.48,0,0,1-7.76,2,16.31,16.31,0,0,0,14.8,3S65,367.62,56.07,368.3c0,0,3.89,2.8,10.55,2,0,0-7.87,7.62-21.43,5,0,0,.89,5.91,7.72,6.35S29,385.35,19.74,379.4l13.73,7.76s-21.56,3.17-32.9-10l3.6,7.1s-15.28-7.36-21-12.56c0,0-8.19,12.55-21.35,11.63l-1.55-3.46s-4.56,7.58-16.21,6.82l6.15-8.5s-5.37,8.29-21.09,7.52l7.54-6.37s-8.29,10.14-24.5,5.26l8.35-3.27s-19,2.57-27.41-4.59c0,0,15.34-1.29,25.09-6.5s14.1-9.5,14.1-9.5-17.74,10.79-32.36,5l8.06-2.78s-15.74,3.55-18.8-.21l9.38-3.45-6.64-3.49s4.39-1,10.86-2.85l-7.16-7.08s3.49,1,10.38.68,30.92-10.18,30.92-10.18l-16.54.19L-73,331.9s-17.9,5.44-24.82,2.44l10-4.69s-13.63,6.23-18.75,2.84l8-6.09-9.86-.9s41.3-9.5,45.16-17.9c0,0-15.42,6.37-25.27,5.47l6.2-5.44s-10.51,5.16-16.52,3.75l7.6-7.38-8.39,0,3.66-5.35-9,1.7s18.49-6.53,24.81-13.74c0,0-9.75,1.4-16.29.21,0,0,22-10,24.5-17,0,0-9.41,7.78-19.74,6.34l22.14-15.84-11.59,2.29L-63.25,249s14.32-9-1.58-7S-83,236.8-83,236.8l12-.74-14.26-3.48s22.58.71,30.79-4.34A24.79,24.79,0,0,0-44,215.71s-9.25,9.31-20.9,8.55l3.34-4.36s-11.76,4.82-17.07,4.48l20.12-12.16L-69.6,214s14.19-3.14,25.18-11.83,9.13-11.35,9.13-11.35-13.71,7.49-24.61,7,.82-4.78.82-4.78L-73,191.44s25.81-5.94,35.68-12.92,0-3.56-5.49-1.63-17.13,1.42-21.15.65,22.89-7.91,30-14.82,4.84-7.38-1.19-5.16c-23.6,8.69-20.33.73-21.59.65s12.07-2.79,12.07-2.79l-11.52-5.74s16.51-2,19.66-3.25c6.77-2.61,10.16-10.08,2.22-9.65-15.16.81-19.25-3.61-19.25-3.61l19.94-5.79-11.91-2.8,18.43-2.94s-16-6.53-15.72-10.07,9.41,3.92,19.53,4.58c0,0-1.56-3.41-4.92-10.24s1.85-1.15,5.65-.9-.21-8.4-.21-8.4,0,.51,4.52.8-2-5-1.87-10.29,2.17-2.15,4.57,0S-10.37,77.61-10.37,77.61Z"/><polygon class="cls-27" points="748.46 107.88 751.63 114.57 754.92 107.44 752 79.43 748.46 107.88"/><path class="cls-27" d="M852.49,445.33c11.71-1.67,14.05-9,14.05-9a21.51,21.51,0,0,1-19.74-2.68,32.28,32.28,0,0,0,10-3.35c-10,3.35-21.75,0-21.75,0-23.42-2.34,11.37-12.55,11.37-12.55s-22.07-11.2-14.38-11.2,19.74-2.34,14.72-2.34-4-4.35-4-4.35,9.37-2.68-7-2.68-15.05-7.69-15.05-7.69h16.06l-10.37-4c9.37,1.34,22.75-2,22.75-2-6,0-13.72-5.35-13.72-5.35,14.39,0,13.72-11.37,13.72-11.37H819.37c-16.73,0-19.4-6.69-19.4-6.69h7s-4-6,3.68-7a64.46,64.46,0,0,1,15.05,0s-10-3.68-6.36-4.35,12,0,12,0-13.72-4-4.68-4a11.15,11.15,0,0,0,11-8H798.63c-23.75,0-14.05-7-14.05-7l29.44-3H803.64l17.06-3.68-10.37-3.35,24.76-1.67-12.71-3,9.37-6.36c-20.07,3.68-40.48-6.69-40.48-6.69s6.36-5-2.17-5.35-18.9-13.21-11.71-8.7,19.91,6.52,19.91,6.52-20.41-9.37.17-3.73,31.95-16.84,27.77-13.66-12.38-1.17-12.38-1.17,9.37-6,1-3.35-28.77-4.18-20.91-4.18,13-3.68,3.85-3.51-9.7-8.2-9.7-8.2l11.71,1.34c11.54.84,15.89-5.35,15.89-5.35a16.36,16.36,0,0,1-9-1c8.53-.67,16.67-12.95,16.67-12.95s-15.72,7-27.77,5-13.72-6.36-4.4-7.55a24.34,24.34,0,0,0,19.69-15c-4.85,5-32.12,7-22.92,4.68s19.34-10.94,19.34-10.94-17.34,6.76-25,6.76-.84-4.18-.84-4.18c32.89-4.58,39.92-21.64,39.92-21.64-4.46,4.87-32.39,4.25-27.21,2.57s10-12,6.39-7.69-13.75,3.85-11.08,3.85,3.51-6.53,3.51-6.53-21.41,2.68-16.23,2.34,10-4.68,5.69-4.52-4-2.17,4.85-2.34,7.69-5.35,7.69-5.35a9.72,9.72,0,0,1-9,0c14.05-4,21.18-12.95,20.35-12.44s-21.78,6.31-41.63.73c-7.3-2.05-6.57-8.07-.63-5.18,11.71,5.69,21.08,2.51,15.56,2.51a9.12,9.12,0,0,1-7.86-4.35c15.39,4.18,21.08-4,21.08-4-5.69,3-9.53,1.51-9.53,1.51,5-2.51,8-9.71,8-9.71-15.75,8.64-26.06,1.09-29-.12l-9.29-.17c20.25,1.87,25.71-6,25.71-6-15.56,3-10.54,0-10.54,0,10.54,0,14.05-13,14.05-13a96.38,96.38,0,0,1-14.05,5.52c14.05-5.52,13-21.08,13-21.08-7,7.53-22.18,7.36-22.18,7.36s20.75-7.39,16.73-9.06c-3.76-1.56-22.2,2-18.14,0,10.56-5.21,8.63-10.84,8.63-10.84s-10.75,4.86-14.54,4.52c-4.06-.36-14.47-7.54-14.47-7.54s.38,10.21,8.56,13.86c4.34,1.93-10.63-.08-18.88-2.09-3.82-.93,4.23,9.92,10.32,11.87,9.9,3.17-3.72.06-15-8.08,0,0-1,15.56,13,21.08a96.38,96.38,0,0,1-14.05-5.52s3.51,13,14.05,13c0,0,5,3-10.54,0,0,0-1.1,8.19,19.14,6.33,0,0-15.93,8.65-31.69,0,0,0,3,7.21,8,9.71,0,0-3.85,1.51-9.53-1.51,0,0,5.69,8.2,21.08,4a9.12,9.12,0,0,1-7.86,4.35c-5.52,0,3.85,3.18,15.56-2.51,5.95-2.89,4.81,5.63-2.68,6.86-21,3.46-32.79.5-33.62,0s.33,6,14.39,10a9.72,9.72,0,0,1-9,0s-1.17,5.19,7.69,5.35,9.2,2.51,4.85,2.34.5,4.18,5.69,4.52-16.23-2.34-16.23-2.34.84,6.53,3.51,6.53-7.43.5-11.08-3.85,1.21,6,6.39,7.69-14.55,1.17-16.73-3.35c0,0,1.34,9.7,13.38,12s-.67,3.51-.67,3.51a24.81,24.81,0,0,0,16.73,6.86s6.86,4.18-.84,4.18a60.55,60.55,0,0,1-14.72-2s-.17,3.85,9,6.19-18.07.33-22.92-4.68a33.68,33.68,0,0,0,16.73,14.22s-8.36,1.51-13.72-3.18c0,0,20.07,15.39,7.86,13.88s-19.07-2.84-19.07-2.84,3.85,7.69,12.38,8.36a16.36,16.36,0,0,1-9,1s3.52,5,12.64,5.41a10.93,10.93,0,0,1,6.81,2.58c.78.69,0,2.39-1.26,4.31-3.57,5.25-28.59,7.25-30.84,5.53-4.18-3.18,1.34,14.57,28.1,14.57,21.33,0-7.69,18.89-36.8,15.21,0,0,.67,11.71,13.66,14.79,14,3.32,24.33,3.84,20.8,3.28l-29.11,4.35s24.42,14.12,46.11,7.09c3.74-1.21,9.7,7-14.05,7H663.68a11.15,11.15,0,0,0,11,8c9,0-4.68,4-4.68,4s8.36-.67,12,0-6.36,4.35-6.36,4.35a64.46,64.46,0,0,1,15.05,0c7.69,1,3.68,7,3.68,7h7s-2.68,6.69-19.4,6.69H652.31s-.67,11.37,13.72,11.37c0,0-7.7,5.35-13.72,5.35,0,0,13.39,3.35,22.75,2l-10.37,4h16.06s1.34,7.69-15.05,7.69-7,2.68-7,2.68,1,4.35-4,4.35,7,2.34,14.72,2.34-5,6.36-5,6.36h9.36c4.31,0,8,3.52,7.78,7.82-.25,4.06-3.43,8.41-15.14,9.58,0,0-11.71,3.35-21.75,0a32.28,32.28,0,0,0,10,3.35,21.51,21.51,0,0,1-19.74,2.68s2.34,7.36,14.05,9c0,0-5.35,3.35-14.05,1.67,0,0,9.7,10.71,27.77,8.36,0,0-1.67,7.69-10.71,7.69-8.74,0,28.55,6.57,42.5.64l-17.41,8.39s28.1,6,44.16-10.37l-5.35,9s9.24-3.72,17.77-8.09c5.42-2.78,11.39-1.4,17,1,0,0,.08,0,.1,0s.05,0,.1,0c5.59-2.42,11.56-3.8,17-1,8.53,4.37,17.77,8.09,17.77,8.09l-5.35-9c16.06,16.39,44.16,10.37,44.16,10.37L807,463.7c13.95,5.93,51.24-.64,42.5-.64-9,0-10.71-7.69-10.71-7.69,18.07,2.34,27.77-8.36,27.77-8.36C857.84,448.68,852.49,445.33,852.49,445.33Z"/><polygon class="cls-27" points="48.21 172.79 51.39 179.48 54.67 172.34 51.75 144.34 48.21 172.79"/><path class="cls-27" d="M152.24,510.24c11.71-1.67,14.05-9,14.05-9a21.51,21.51,0,0,1-19.74-2.68,32.28,32.28,0,0,0,10-3.35c-10,3.35-21.75,0-21.75,0-23.42-2.34,11.37-12.55,11.37-12.55s-22.07-11.2-14.38-11.2,19.74-2.34,14.72-2.34-4-4.35-4-4.35,9.37-2.68-7-2.68-15.05-7.69-15.05-7.69h16.06l-10.37-4c9.37,1.34,22.75-2,22.75-2-6,0-13.72-5.35-13.72-5.35,14.39,0,13.72-11.37,13.72-11.37H119.12c-16.73,0-19.4-6.69-19.4-6.69h7s-4-6,3.68-7a64.47,64.47,0,0,1,15.05,0s-10-3.68-6.36-4.35,12,0,12,0-13.72-4-4.68-4a11.15,11.15,0,0,0,11-8H98.38c-23.75,0-14.05-7-14.05-7l29.44-3H103.39l17.06-3.68-10.37-3.35,24.76-1.67-12.71-3,9.37-6.36C111.42,377.09,91,366.72,91,366.72s6.36-5-2.17-5.35-18.9-13.22-11.71-8.7S97,359.19,97,359.19s-20.41-9.37.17-3.73,31.95-16.84,27.77-13.66-12.38-1.17-12.38-1.17,9.37-6,1-3.35-28.77-4.18-20.91-4.18,13-3.68,3.85-3.51-9.7-8.2-9.7-8.2l11.71,1.34c11.54.84,15.89-5.35,15.89-5.35a16.36,16.36,0,0,1-9-1c8.53-.67,16.67-12.95,16.67-12.95s-15.72,7-27.77,5-13.72-6.36-4.4-7.55a24.34,24.34,0,0,0,19.69-15c-4.85,5-32.12,7-22.92,4.68S106,279.67,106,279.67s-17.34,6.76-25,6.76-.84-4.18-.84-4.18c32.89-4.58,39.92-21.64,39.92-21.64-4.46,4.87-32.39,4.25-27.21,2.57s10-12,6.39-7.69-13.75,3.85-11.08,3.85,3.51-6.53,3.51-6.53-21.41,2.68-16.23,2.34,10-4.68,5.69-4.52-4-2.17,4.85-2.34,7.69-5.35,7.69-5.35a9.72,9.72,0,0,1-9,0c14.05-4,21.18-12.95,20.35-12.44s-21.78,6.31-41.63.73c-7.3-2.05-6.57-8.07-.63-5.18,11.71,5.69,21.08,2.51,15.56,2.51a9.12,9.12,0,0,1-7.86-4.35c15.39,4.18,21.08-4,21.08-4-5.69,3-9.53,1.51-9.53,1.51,5-2.51,8-9.71,8-9.71-15.75,8.64-26.06,1.09-29-.12l-9.29-.17c20.25,1.87,25.71-6,25.71-6-15.56,3-10.54,0-10.54,0,10.54,0,14.05-13,14.05-13a96.38,96.38,0,0,1-14.05,5.52C81,192.58,80,177,80,177c-7,7.53-22.18,7.36-22.18,7.36s20.75-7.39,16.73-9.06c-3.76-1.56-22.2,2-18.14,0C66.94,170.11,65,164.48,65,164.48S54.27,169.34,50.48,169c-4.06-.36-14.47-7.54-14.47-7.54s.38,10.21,8.56,13.86c4.34,1.93-10.63-.08-18.88-2.09-3.82-.93,4.23,9.92,10.32,11.87,9.9,3.17-3.72.06-15-8.08,0,0-1,15.56,13,21.08A96.38,96.38,0,0,1,20,192.58s3.51,13,14.05,13c0,0,5,3-10.54,0,0,0-1.1,8.19,19.14,6.33,0,0-15.93,8.65-31.69,0,0,0,3,7.21,8,9.71,0,0-3.85,1.51-9.53-1.51,0,0,5.69,8.2,21.08,4a9.12,9.12,0,0,1-7.86,4.35c-5.52,0,3.85,3.18,15.56-2.51,5.95-2.89,4.81,5.63-2.68,6.86-21,3.46-32.79.5-33.62,0s.33,6,14.39,10a9.72,9.72,0,0,1-9,0s-1.17,5.19,7.69,5.35,9.2,2.51,4.85,2.34.5,4.18,5.69,4.52S9.27,252.8,9.27,252.8s.84,6.53,3.51,6.53-7.43.5-11.08-3.85,1.21,6,6.39,7.69-14.55,1.17-16.73-3.35c0,0,1.34,9.7,13.38,12s-.67,3.51-.67,3.51a24.81,24.81,0,0,0,16.73,6.86s6.86,4.18-.84,4.18a60.55,60.55,0,0,1-14.72-2s-.17,3.85,9,6.19-18.07.33-22.92-4.68A33.68,33.68,0,0,0,8.09,300.14S-.27,301.65-5.62,297c0,0,20.07,15.39,7.86,13.88S-16.83,308-16.83,308s3.85,7.69,12.38,8.36a16.36,16.36,0,0,1-9,1s3.52,5,12.64,5.41A10.93,10.93,0,0,1,6,325.36c.78.69,0,2.39-1.26,4.31-3.57,5.25-28.59,7.25-30.84,5.53C-30.32,332-24.8,349.78,2,349.78c21.33,0-7.69,18.89-36.8,15.21,0,0,.67,11.71,13.66,14.79,14,3.32,24.33,3.84,20.8,3.28l-29.11,4.35s24.42,14.12,46.11,7.09c3.74-1.21,9.7,7-14.05,7H-36.57a11.15,11.15,0,0,0,11,8c9,0-4.68,4-4.68,4s8.36-.67,12,0-6.36,4.35-6.36,4.35a64.47,64.47,0,0,1,15.05,0c7.69,1,3.68,7,3.68,7h7s-2.68,6.69-19.4,6.69H-47.94S-48.61,443-34.23,443c0,0-7.7,5.35-13.72,5.35,0,0,13.39,3.35,22.75,2l-10.37,4h16.06s1.34,7.69-15.05,7.69-7,2.68-7,2.68,1,4.35-4,4.35,7,2.34,14.72,2.34-5,6.36-5,6.36h9.36c4.31,0,8,3.52,7.78,7.82-.25,4.06-3.43,8.41-15.14,9.58,0,0-11.71,3.35-21.75,0a32.28,32.28,0,0,0,10,3.35,21.51,21.51,0,0,1-19.74,2.68s2.34,7.36,14.05,9c0,0-5.35,3.35-14.05,1.67,0,0,9.7,10.71,27.77,8.36,0,0-1.67,7.69-10.71,7.69-8.74,0,28.55,6.57,42.5.64L-23.19,537S4.92,543,21,526.64l-5.35,9s9.24-3.72,17.77-8.09c5.42-2.78,11.39-1.4,17,1,0,0,.08,0,.1,0s.05,0,.1,0c5.59-2.42,11.56-3.8,17-1,8.53,4.37,17.77,8.09,17.77,8.09l-5.35-9C96,543,124.14,537,124.14,537l-17.41-8.39c13.95,5.93,51.24-.64,42.5-.64-9,0-10.71-7.69-10.71-7.69,18.07,2.34,27.77-8.36,27.77-8.36C157.59,513.59,152.24,510.24,152.24,510.24Z"/><path class="cls-24" d="M329.95,192.95a76.45,76.45,0,0,1,9.56,3.64L381,159.25,481.7,138.19l3.44-1.28A98.71,98.71,0,1,0,295.6,191.84C308.51,191.35,323.89,191.22,329.95,192.95Z"/></g><g class="cls-28"><rect x="0.5" y="0.5" width="749" height="499"/><path d="M749,1V499H1V1H749m1-1H0V500H750V0Z"/></g></g></g></svg>